<?xml version="1.0" encoding="UTF-8"?>
<svg id="_レイヤー_1" data-name="レイヤー_1" xmlns="http://www.w3.org/2000/svg" version="1.1" viewBox="0 0 367.74 70.87">
  <!-- Generator: Adobe Illustrator 29.3.1, SVG Export Plug-In . SVG Version: 2.1.0 Build 151)  -->
  <defs>
    <style>
      .st0 {
        fill: #0072bc;
        fill-rule: evenodd;
      }
    </style>
  </defs>
  <path class="st0" d="M46.52,0c-3.38,0-6.72.73-9.07,1.7-2.35-.96-5.69-1.7-9.07-1.7C13.47,0,0,14.1,0,33.45c0,21.1,17.24,37.41,37.45,37.41s37.45-16.31,37.45-37.41C74.91,14.1,61.44,0,46.52,0h0ZM37.45,11.49c2.87,1.71,6.67,6.66,6.67,12.25,0,4.1-2.7,7.32-6.67,7.32s-6.67-3.23-6.67-7.32c0-5.59,3.8-10.54,6.67-12.25h0ZM37.45,61.65c-15.46,0-28.25-12.43-28.25-28.38,0-14.56,10.51-24.51,18.76-24.13-3.91,3.9-6.28,9.57-6.28,15.07,0,9.45,7.5,16.08,15.77,16.08s15.77-6.63,15.77-16.08c0-5.5-2.37-11.17-6.28-15.07,8.26-.37,18.76,9.58,18.76,24.13,0,15.95-12.79,28.38-28.25,28.38ZM129.06,16.04h32.02v7.75h-11.82v29.1h-8.37v-29.1h-11.82v-7.75ZM163.74,23.79h11.82v29.1h8.37v-29.1h11.82v-7.75h-32.02v7.75ZM117.98,39c0,1.65.1,4.09.12,4.59.02.4,0,.79-.2.91-.24.14-.47-.08-.64-.39-.18-.34-11.37-22.13-12.73-24.28-1.58-2.48-3.5-4.2-7.18-4.2-3.42,0-7.46,1.52-7.46,9.72v27.55h8.25v-22.98c0-1.65-.1-4.09-.12-4.58-.02-.4,0-.79.2-.91.24-.14.48.08.64.39.16.31,10.53,20.82,12.73,24.28,1.58,2.48,3.5,4.2,7.18,4.2,3.41,0,7.46-1.52,7.46-9.72v-27.55h-8.25v22.98ZM267.37,18.73h16.82v4.72h-16.82v4.16h10.37c2.37,0,4.3,1.92,4.3,4.3v14.22c0,2.37-1.92,4.3-4.3,4.3h-5.04v-4.89h4.78v-13.29h-10.11v20.92h-4.89v-20.92h-9.78v18.08h-4.64v-18.42c0-2.37,1.92-4.3,4.3-4.3h10.13v-4.16h-16.62v-4.72h16.62v-3.91h4.89v3.91ZM318.45,44.02h-4.31v9.15h-4.32v-9.15h-5.26c-.95,4.62-3.4,7.53-7.91,9.29v-4.86c1.43-.67,3.42-2.64,3.52-4.42h-4.45v-3.95h4.88v-3.58h-4.11v-3.74h21.3v3.74h-3.66v3.58h4.31v3.95ZM309.83,36.49h-4.91v3.58h4.91v-3.58ZM356.49,32.12v5.18h10.6v4.32h-10.6v7.24h6.53v-3.71h4.44v4.34c0,2.04-1.65,3.69-3.69,3.69h-8.16c-2.04,0-3.69-1.65-3.69-3.69v-7.87h-5.77c-.87,5.01-5.29,10.27-14.42,11.75v-4.6c4.98-1.05,8.74-3.51,9.76-7.15h-10.14v-4.32h10.42v-5.18h-4.23v-2.29c-2.75,1.68-5.34,2.91-7.22,3.58v-4.82c1.96-.68,3.92-1.64,5.76-2.73-.69-.6-2.14-1.56-3.02-1.91v-4.25c2.31.81,5.27,2.72,6.55,3.8,1.83-1.38,3.41-2.8,4.52-4.09h-8.78v-3.54h15.89c.63,1.13,1.47,2.22,2.43,3.26.82-.78,2.01-2.16,2.64-3.26h5.04c-.76,1.43-3.76,5.24-4.59,6.12.78.63,1.59,1.23,2.41,1.79.79-.64,2.05-2.37,2.93-3.66h5.04c-.71,1.33-3.27,4.73-4.29,5.93,1.85,1.02,3.56,1.81,4.87,2.28v4.69c-1.81-.8-4.23-1.9-6.84-3.35v2.44h-4.41ZM351.93,32.12h-5.6v5.18h5.6v-5.18ZM357.91,27.89c-3.23-2.08-6.5-4.69-9.09-7.94-2.28,3.09-5.29,5.77-8.32,7.94h17.41ZM238.08,30.42c3.28,3.89,4.5,7.26,4.5,11.33,0,5.02-2.21,7.57-5.32,7.57h-3.73v-4.85h1.47c1.62,0,2.88-1.41,2.72-3.02-.34-3.51-.88-6.62-4.37-10.34.55-1.29,2.2-5.85,3.66-10.79h-5.3v32.86h-4.44V17.53c-1.25,2.82-2.97,6.02-5.31,9.22h3.78v4.19h-7.25c-.93,1-1.94,1.98-3.02,2.93h6.46c1.36,0,2.46,1.1,2.46,2.46v14.07c0,1.36-1.1,2.46-2.46,2.46h-12.68c-1.36,0-2.46-1.1-2.46-2.46v-10.47c-.93.58-2.05,1.15-3.55,1.64v-5.08c3.48-1.51,6.5-3.36,9.11-5.56h-8.73v-4.19h7.58v-4.32h-6.44v-4.15h6.44v-3.42h4.52v3.42h6.11c.19-.42.39-.83.57-1.26h4.88v-1.31h11.13c2.51,0,4.27,2.45,3.5,4.84-1.29,4.02-2.77,7.31-3.84,9.87ZM220.08,45.45h-8.88v3.59h8.88v-3.59ZM220.08,37.58h-8.88v3.79h8.88v-3.79ZM216.52,26.75c1.14-1.37,2.19-2.84,3.14-4.4h-3.94v4.4h.8ZM325.05,20.17v29.81c0,1.54-1.65,3.19-3.69,3.19h-4.61v-4.89h3.77v-17.61h-9.03c-1.7,0-3.07-1.37-3.07-3.07v-8.54c0-1.7,1.37-3.07,3.07-3.07h9.86c2.04,0,3.69,1.65,3.69,4.18ZM320.49,24.85h-7.62v2.49h7.62v-2.49ZM320.49,19.5h-7.62v2.49h7.62v-2.49ZM302.59,30.68h-8.87v22.49h-4.52V20.17c0-2.53,1.65-4.18,3.69-4.18h9.7c1.7,0,3.07,1.37,3.07,3.07v8.54c0,1.7-1.37,3.07-3.07,3.07ZM301.39,24.81h-7.58v2.53h7.58v-2.53ZM301.39,19.5h-7.58v2.49h7.58v-2.49Z"/>
</svg>