<svg id="レイヤー_1" data-name="レイヤー 1" xmlns="http://www.w3.org/2000/svg" viewBox="0 0 566.72 106.71"><defs><style>.cls-1{fill:#231815;}.cls-2{fill:#addef8;}.cls-3{fill:#ffe037;}.cls-4{fill:#d7000f;}.cls-5{fill:#fff;}</style></defs><path class="cls-1" d="M154.36,244.34v33.09a.29.29,0,0,1-.29.3c-5.6.22-9.49,2-12.55,5.3-4.22,4.54-4.64,10.56-4.64,12.76,0,.49,0,.79,0,.84s0,.58.07.91h17.08a.29.29,0,0,1,.3.29V351l106.69,0V244.32Z" transform="translate(-136.88 -244.32)"/><path class="cls-1" d="M322.65,256.83q-4.81-5.59-13.54-5.59t-13.59,5.56q-4.81,5.55-4.81,15.19c0,6.28,1.62,11.3,4.88,15q4.94,5.82,13.52,5.82,8.86,0,13.67-5.68,4.68-5.44,4.68-15.16Q327.46,262.44,322.65,256.83Zm-13.52,27.71c-6.09,0-9.16-4.18-9.16-12.57s3.07-12.57,9.16-12.57,9.16,4.2,9.16,12.57S315.24,284.54,309.13,284.54Z" transform="translate(-136.88 -244.32)"/><path class="cls-1" d="M374.24,265.2c0,3.64-1.07,7.7-3.2,10.33a10.11,10.11,0,0,1-8.19,3.92H352V292.3h-8.49V251.65h19.31a10.5,10.5,0,0,1,8.17,3.58c2.14,2.38,3.22,6.33,3.22,10Zm-8.51.22c0-1.51-.49-3.66-1.48-4.57a5.14,5.14,0,0,0-3.62-1.34H352v12h8.6a4.9,4.9,0,0,0,3.62-1.45c1-1,1.48-3.15,1.48-4.67Z" transform="translate(-136.88 -244.32)"/><path class="cls-1" d="M471.49,321.43a14.28,14.28,0,0,1-2.67,8.61A8.38,8.38,0,0,1,462,333.3h-9V344H445.9V310.13H462a8.76,8.76,0,0,1,6.81,3c1.79,2,2.69,5.28,2.69,8.31Zm-7.09.18a5.84,5.84,0,0,0-1.23-3.8,4.27,4.27,0,0,0-3-1.12H453v10h7.18a4.1,4.1,0,0,0,3-1.22,6.17,6.17,0,0,0,1.23-3.89Z" transform="translate(-136.88 -244.32)"/><polygon class="cls-1" points="278.75 47.97 253.71 47.98 253.71 7.33 278.75 7.32 278.75 14.56 261.96 14.56 261.96 23.89 273.59 23.89 273.59 31.12 261.96 31.12 261.96 40.74 278.75 40.74 278.75 47.97"/><polygon class="cls-1" points="566.72 47.97 541.67 47.98 541.67 7.33 566.72 7.32 566.72 14.56 549.92 14.56 549.92 23.89 561.56 23.89 561.56 31.12 549.92 31.12 549.92 40.74 566.72 40.74 566.72 47.97"/><polygon class="cls-1" points="328.25 47.97 319.75 47.97 303.85 20.05 303.85 47.97 295.4 47.97 295.4 7.32 306.13 7.32 319.8 30.49 319.8 7.32 328.25 7.32 328.25 47.97"/><polygon class="cls-1" points="381.22 7.26 381.22 22.71 367.39 22.71 367.39 7.26 358.16 7.26 358.16 47.82 367.39 47.82 367.39 31.41 381.22 31.41 381.22 47.82 390.53 47.82 390.53 7.26 381.22 7.26"/><path class="cls-1" d="M610.85,251.58v23.19c0,5.77-1.84,8.24-6.2,8.24s-6.15-2.47-6.15-8.25V251.58h-9.84V276c0,5.26,1.45,9.34,4.32,12.12s6.78,4.21,11.67,4.21,8.89-1.39,11.67-4.13c2.95-2.84,4.45-7,4.45-12.27v-24.3Z" transform="translate(-136.88 -244.32)"/><path class="cls-1" d="M571.23,256.81c-3.22-3.72-7.4-5.61-13.17-5.61s-10,1.88-13.22,5.57S540,265.55,540,271.89s1.64,11.23,4.87,14.94c3.29,3.88,7.46,5.83,13.16,5.82,5.85,0,10.09-1.91,13.29-5.67s4.68-8.69,4.68-15.09-1.62-11.37-4.8-15.08Zm-13.17,27.31c-5.93,0-8.44-4-8.44-12.22s2.51-12.23,8.44-12.23,8.42,4,8.42,12.23-2.5,12.22-8.42,12.22Z" transform="translate(-136.88 -244.32)"/><path class="cls-1" d="M425.33,310.08V329.4c0,4.82-1.55,6.87-5.18,6.87s-5.12-2-5.12-6.87V310.08h-8.21v20.31c0,4.39,1.22,7.78,3.61,10.1s5.65,3.51,9.72,3.51,7.41-1.16,9.73-3.45,3.71-5.79,3.71-10.22V310.08Z" transform="translate(-136.88 -244.32)"/><path class="cls-1" d="M392.83,314.44c-2.67-3.11-6.15-4.68-11-4.68s-8.35,1.56-11,4.64-4,7.32-4,12.6,1.36,9.37,4.05,12.46a13.44,13.44,0,0,0,11,4.85c4.89,0,8.41-1.59,11.08-4.73s3.9-7.25,3.9-12.57-1.35-9.48-4-12.57Zm-11,22.76c-4.94,0-7-3.33-7-10.19s2.09-10.19,7-10.19,7,3.33,7,10.19-2.09,10.19-7,10.19Z" transform="translate(-136.88 -244.32)"/><path class="cls-1" d="M653.87,267.85l-5.46-2c-3-1-4-2.09-4-3.77,0-2.09,1.24-4.17,5.25-4.17,3.24,0,5.75,1.89,7.57,5l6.66-4.77c-2.34-5.44-7.24-8.1-14.6-8.1-9.13,0-14,6-14,12.54,0,5.2,3.17,8.8,9.38,11.05l5.51,2.13c3.75,1.41,5.11,2.77,5.11,5,0,2.51-1.69,4.07-5.7,4.07a10.07,10.07,0,0,1-8.61-5.64L634.16,284c2.57,5.67,7.61,9,15.27,9,8.75,0,15.42-4.47,15.42-12.89C664.85,273.84,660,269.89,653.87,267.85Z" transform="translate(-136.88 -244.32)"/><path class="cls-1" d="M355.27,338.88a16.08,16.08,0,0,0-3.13-8.79,9.44,9.44,0,0,0,1.5-1.47,12.21,12.21,0,0,0,2.66-7.9,11,11,0,0,0-2.68-7.6,9,9,0,0,0-6.92-3h-16V344h7.08V331.89h4.79a5.46,5.46,0,0,1,4,2.05,10.2,10.2,0,0,1,1.82,5.86v.47a20.45,20.45,0,0,0,.4,3.73H356a7.31,7.31,0,0,1-.71-3.38Zm-17.48-22.19h7.08a4.56,4.56,0,0,1,3.12,1.12,4.1,4.1,0,0,1,1.23,3.1,4.18,4.18,0,0,1-4.35,4.39h-7.08Z" transform="translate(-136.88 -244.32)"/><path class="cls-1" d="M305.78,325.33v6h6.43c-.1,3.87-2.32,5.95-6.35,5.84-4.93-.15-7-3.33-7-10.19s2.14-10.19,7.08-10.19c2.81,0,4.95,1.07,5.55,3.28h8a12.13,12.13,0,0,0-2.62-5.66c-2.68-3.11-6.16-4.68-11-4.68s-8.34,1.56-11,4.64-4,7.32-4,12.6,1.35,9.37,4,12.46a13.42,13.42,0,0,0,11,4.85c4.89,0,8.1-1.31,10.76-4.45s3.69-7.53,3.69-12.85c0-.12,0-1.57,0-1.69Z" transform="translate(-136.88 -244.32)"/><path class="cls-2" d="M157.71,248a.31.31,0,0,1,.3-.3h31.53a.32.32,0,0,1,.21.08.36.36,0,0,1,.09.22V268.5a.3.3,0,0,1-.3.3H158a.3.3,0,0,1-.3-.3Z" transform="translate(-136.88 -244.32)"/><rect class="cls-3" x="20.83" y="26.94" width="10" height="34.35" rx="0.3"/><path class="cls-4" d="M240.07,305.32a.3.3,0,0,1-.3.3H192.25a.3.3,0,0,1-.3-.3V271.05h0V248a.29.29,0,0,1,.3-.3h47.52a.31.31,0,0,1,.3.3Z" transform="translate(-136.88 -244.32)"/><rect class="cls-2" x="105.3" y="3.33" width="15.57" height="57.96" rx="0.3"/><path class="cls-4" d="M173.22,347.44a.31.31,0,0,1-.3.3H158a.29.29,0,0,1-.21-.09.33.33,0,0,1-.09-.21v-23a.3.3,0,0,1,.3-.3h14.95a.3.3,0,0,1,.3.3Z" transform="translate(-136.88 -244.32)"/><path class="cls-3" d="M242.48,307.92h14.16l-14.46,37.94V308.22a.3.3,0,0,1,.3-.3" transform="translate(-136.88 -244.32)"/><path class="cls-3" d="M257.46,347.72H243.29l14.46-38v37.66a.3.3,0,0,1-.29.3" transform="translate(-136.88 -244.32)"/><path class="cls-5" d="M240.07,347.43a.29.29,0,0,1-.3.29l-64.31,0a.31.31,0,0,1-.21-.09.3.3,0,0,1-.09-.21V322.05H158a.3.3,0,0,1-.3-.3V308.2a.3.3,0,0,1,.3-.3h81.81a.3.3,0,0,1,.3.3Z" transform="translate(-136.88 -244.32)"/><rect class="cls-5" x="33.11" y="26.44" width="19.85" height="7.75"/><rect class="cls-5" x="33.11" y="35.7" width="19.85" height="7.79"/><rect class="cls-5" x="33.11" y="44.99" width="19.85" height="7.94"/><rect class="cls-5" x="33.11" y="54.43" width="19.85" height="7.43"/></svg>